<?xml version="1.0" encoding="UTF-8" standalone="no"?>
<!-- Created with Inkscape (http://www.inkscape.org/) -->

<svg
   width="512"
   height="512"
   viewBox="0 0 512 512"
   version="1.1"
   id="svg1"
   inkscape:version="1.4 (86a8ad7, 2024-10-11)"
   sodipodi:docname="drawing.svg"
   inkscape:export-filename="drawing.png"
   inkscape:export-xdpi="96"
   inkscape:export-ydpi="96"
   xmlns:inkscape="http://www.inkscape.org/namespaces/inkscape"
   xmlns:sodipodi="http://sodipodi.sourceforge.net/DTD/sodipodi-0.dtd"
   xmlns="http://www.w3.org/2000/svg"
   xmlns:svg="http://www.w3.org/2000/svg">
  <sodipodi:namedview
     id="namedview1"
     pagecolor="#ffffff"
     bordercolor="#000000"
     borderopacity="0.25"
     inkscape:showpageshadow="2"
     inkscape:pageopacity="0.0"
     inkscape:pagecheckerboard="0"
     inkscape:deskcolor="#d1d1d1"
     inkscape:document-units="px"
     inkscape:zoom="1.6752354"
     inkscape:cx="219.96909"
     inkscape:cy="208.03047"
     inkscape:window-width="2560"
     inkscape:window-height="1494"
     inkscape:window-x="-11"
     inkscape:window-y="-11"
     inkscape:window-maximized="1"
     inkscape:current-layer="layer1"
     showguides="true" />
  <defs
     id="defs1" />
  <g
     inkscape:label="Layer 1"
     inkscape:groupmode="layer"
     id="layer1">
    <path
       id="text1"
       style="font-size:474.417px;font-family:'CMU Serif';-inkscape-font-specification:'CMU Serif, Normal';fill:#7e9051;fill-opacity:1;stroke-width:56.6156"
       d="m 275.22278,11.572768 c -64.13492,0 -119.53357,24.106575 -166.19727,72.31836 C 62.361819,131.88173 39.029413,190.04449 39.029413,258.38136 c 0,69.22149 23.221532,127.71881 69.664057,175.48828 46.66372,47.76946 102.17322,71.6543 166.52931,71.6543 52.19255,0 94.76472,-18.02598 127.71679,-54.07422 33.17324,-36.26942 49.75977,-75.96658 49.75977,-119.0918 0,-7.7404 -2.98586,-11.60937 -8.95703,-11.60937 -1.76926,0 -3.20672,0.21982 -4.3125,0.66211 -1.10577,0.44232 -1.87996,1.21647 -2.32227,2.32226 -0.44231,1.10577 -0.66211,2.21259 -0.66211,3.31836 0,0.88464 -0.22173,2.43295 -0.66406,4.64453 -2.875,46.66369 -19.23978,83.81656 -49.0957,111.46094 -29.85592,27.64435 -43.10836,35.44932 -82.01368,36.63086 -19.90349,0.60446 -35.74617,-3.63371 -48.13086,-6.06641 -12.16352,-2.65385 -14.89007,-3.78962 -32.36132,-13.07812 -17.25007,-9.28851 -25.36698,-18.43021 -38.85743,-33.46875 -13.26927,-15.25971 -15.29164,-49.00298 16.27344,-72.11719 51.04547,-37.37913 102.16966,-19.15263 100.25196,-105.68359 -1.57815,-71.20852 -71.42086,-74.62782 -107.62891,-96.57227 -62.19978,-40.07272 -47.55446,-57.837965 -34.28516,-73.097652 13.49045,-15.480839 27.04876,-21.518125 44.29883,-30.806641 20.49355,-7.475125 32.17677,-10.010653 44.11914,-12.443359 12.16351,-2.432706 23.66342,-3.648438 34.5,-3.648438 37.59636,0 69.8863,14.594653 96.86719,43.78711 27.20207,29.19245 44.23014,68.22633 51.08594,117.10156 0.88462,5.08656 1.76967,8.29415 2.65429,9.62109 1.10577,1.32691 3.86987,1.99024 8.29297,1.99024 5.52889,0 8.73649,-0.88506 9.6211,-2.6543 0.88462,-1.76923 1.32617,-6.30344 1.32617,-13.60156 V 27.828628 c 0,-6.634649 -0.33068,-10.947106 -0.99414,-12.9375 -0.66347,-2.211549 -2.87514,-3.31836 -6.63477,-3.31836 -3.53847,0 -7.07872,2.764096 -10.61719,8.292969 L 400.28528,69.957534 C 388.56406,58.236311 378.61253,49.28074 370.42981,43.088393 362.24706,36.674904 349.30972,29.81815 331.61731,22.520034 313.92494,15.221922 295.12671,11.572768 275.22278,11.572768 Z M 142.18182,169.4673 c 18.65691,0 34.20267,6.27327 46.64062,18.82226 3.88685,3.88686 6.77616,8.32879 8.66407,13.32618 1.99895,4.99738 3.10796,9.16255 3.33007,12.49414 0.22211,3.22054 0.33399,8.05111 0.33399,14.49218 v 68.13086 c 0,1.33263 0.2218,3.10902 0.66601,5.33008 0.44421,2.22106 1.66511,4.77668 3.66407,7.66406 2.11001,2.77633 4.88742,4.16407 8.33008,4.16407 8.21791,0 12.2712,-7.27432 12.16015,-21.82227 v -19.15625 h 8.66211 v 19.15625 c 0,12.10478 -3.22104,20.54503 -9.66211,25.32031 -6.33003,4.66423 -12.43841,6.9961 -18.32422,6.9961 -7.55161,0 -13.71495,-2.77548 -18.49023,-8.32813 -4.77528,-5.55265 -7.49579,-12.10464 -8.16211,-19.65625 -3.44265,8.66213 -9.10547,15.82457 -16.99024,21.48828 -7.77371,5.55265 -16.99125,8.32813 -27.65234,8.32813 -8.21793,0 -16.21457,-1.05405 -23.98828,-3.16406 -7.66267,-1.99895 -14.713226,-5.83044 -21.154303,-11.49415 -6.330025,-5.77476 -9.496093,-12.99411 -9.496093,-21.65625 0,-19.32323 11.382557,-34.09171 34.148446,-44.30859 13.65953,-6.55213 34.59331,-10.66232 62.80078,-12.32812 v -12.49219 c 0,-14.10374 -3.71961,-24.87586 -11.16016,-32.31641 -7.3295,-7.55161 -15.65982,-11.32812 -24.98828,-11.32812 -16.65796,0 -28.98466,5.21921 -36.98047,15.6582 6.77423,0.22211 11.383,2.0554 13.82617,5.49805 2.44317,3.33159 3.66602,6.71751 3.66602,10.16015 0,4.55318 -1.44465,8.3297 -4.33203,11.32813 -2.77633,2.88737 -6.5509,4.33008 -11.32618,4.33008 -4.55317,0 -8.329691,-1.38774 -11.328124,-4.16407 -2.998433,-2.88737 -4.498047,-6.82878 -4.498047,-11.82617 0,-11.10531 4.997412,-20.32284 14.992191,-27.65234 10.10583,-7.3295 22.32259,-10.99414 36.64844,-10.99414 z m 35.48047,70.96289 c -25.20904,0.88843 -43.31044,6.3844 -54.30469,16.49023 -10.88321,9.99478 -16.32422,20.87877 -16.32422,32.65039 0,8.44003 2.99727,15.38067 8.99414,20.82227 5.99686,5.4416 13.21622,8.16211 21.65625,8.16211 9.55057,0 18.60126,-3.66464 27.15235,-10.99414 8.55108,-7.44055 12.82617,-18.43447 12.82617,-32.98242 z"
       sodipodi:nodetypes="scscscssssscsscccssccccscccsssscscccssscccssscscccscssccsccsccscsccscscscsccssscsc" />
  </g>
</svg>
